<?xml version="1.0" encoding="utf-8"?>
<!-- Sugar Beet SVG | Style inspired by Potato SVG (SVG Repo style) -->
<svg width="800px" height="800px" viewBox="0 0 64 64" xmlns="http://www.w3.org/2000/svg" aria-hidden="true" role="img" class="iconify iconify--emojione" preserveAspectRatio="xMidYMid meet">

<!-- Root bulb -->
<path d="M30.2 60.5c10.8-2.2 18.4-10.4 21.2-20.7c2.4-8.7-.5-18.7-7.9-24.4C37.6 9.1 31.8 7 26.5 8.8c-7.7 2.6-12.7 8.9-15.5 17.8c-3 9.8-1.3 21.2 5.7 28.2c3.7 3.7 8.8 6.1 13.5 5.7z" fill="#bf906c"/>

<!-- Shading -->
<path d="M47.5 16.3c1.8 5.2 2.1 12.4.2 17.7c-2.2 5.9-6.2 11-10.7 14.7c-5.2 4.2-11.5 5.7-16.1 4.1c-2.5-.9-4.2-2.5-5.7-4.8c2.1 5.7 8.1 9.2 14.6 8.3c7.1-.9 13.6-5.8 18.4-12.2c4.8-6.4 6.8-15.1 3.9-23.1c-1.4-3.6-2.8-4.8-4.6-5.2z" fill="#805f47"/>

<!-- Vein and texture highlights -->
<g fill="#cc9a72">
  <path d="M22.3 48.6c.3 1.3-1.3 2.7-3.5 3.1c-2.1.4-4.1-.4-4.3-1.6c-.3-1.3 1.9.6 4.1.2c2.2-.4 3.4-2.9 3.7-1.7"/>
  <path d="M17.5 34.1c.2 1.3-1.6 2.7-3.9 3.1c-2.3.4-4.3-.3-4.5-1.6c-.2-1.3 1.9.5 4.1.1c2.2-.4 3.9-2.9 4.3-1.6"/>
  <path d="M33.4 36.3c.2 1.2-1.4 2.6-3.6 3.1c-2.2.5-4.2 0-4.4-1.2c-.2-1.2 1.8.5 4 .1c2.2-.4 3.9-2.8 4-2"/>
  <path d="M28.8 24.9c.3 1.2-1.5 2.5-3.8 3c-2.3.5-4.3 0-4.6-1.2c-.3-1.2 1.9.5 4.2.1c2.3-.4 4-2.7 4.2-1.9"/>
  <path d="M40.9 19.6c.7.8.1 2.8-1.4 4.4c-1.5 1.6-3.3 2.3-4 1.5c-.7-.8 1.7-.9 3.2-2.5c1.5-1.6 1.4-3.9 2.2-3.4"/>
</g>

<!-- Leaves -->
<path d="M26.7 6.3c1.8-2.8 5.6-4.5 8.7-4c1.6.3 3.2 1.3 3.9 2.6c1.4 2.4.4 5.6-.3 8.1c-.7 2.4-1.5 4.3-1.5 4.3s-1.9-1.6-3.8-2.6c-1.9-.9-4.6-1.2-6.4-.4c.6-1.5.8-3.2.8-5c0-1.6-.3-2.3-.4-2.9z" fill="#8ac26c"/>

<path d="M33.8 3.1c1.2-1.2 4-1.2 5.5 0c1.4 1.1 1.8 3.3 1.3 5c-.5 1.7-1.9 3.7-3 4.8c-.9.8-1.7 1.1-1.7 1.1s-.2-1.6-.9-3.4c-.8-2-2.4-4.1-2.4-4.1s1.4-.8 2.2-1.4z" fill="#76b85b"/>

</svg>
